<svg width="20" height="21" viewBox="0 0 20 21" fill="none" xmlns="http://www.w3.org/2000/svg">
<path d="M15.4375 16.3594H13.5625C13.4594 16.3594 13.375 16.2715 13.375 16.1641V4.83594C13.375 4.72852 13.4594 4.64062 13.5625 4.64062H15.4375C15.5406 4.64062 15.625 4.72852 15.625 4.83594V16.1641C15.625 16.2715 15.5406 16.3594 15.4375 16.3594ZM10.9375 9.52344H9.0625C8.95937 9.52344 8.875 9.43555 8.875 9.32812V4.83594C8.875 4.72852 8.95937 4.64062 9.0625 4.64062H10.9375C11.0406 4.64062 11.125 4.72852 11.125 4.83594V9.32812C11.125 9.43555 11.0406 9.52344 10.9375 9.52344ZM6.4375 11.2812H4.5625C4.45937 11.2812 4.375 11.1934 4.375 11.0859V4.83594C4.375 4.72852 4.45937 4.64062 4.5625 4.64062H6.4375C6.54063 4.64062 6.625 4.72852 6.625 4.83594V11.0859C6.625 11.1934 6.54063 11.2812 6.4375 11.2812ZM1.375 0.734375H18.625C19.0398 0.734375 19.375 1.0835 19.375 1.51562V19.4844C19.375 19.9165 19.0398 20.2656 18.625 20.2656H1.375C0.960156 20.2656 0.625 19.9165 0.625 19.4844V1.51562C0.625 1.0835 0.960156 0.734375 1.375 0.734375ZM2.3125 18.5078H17.6875V2.49219H2.3125V18.5078Z" fill="white"/>
</svg>
