<svg width="44" height="46" viewBox="0 0 44 46" fill="none" xmlns="http://www.w3.org/2000/svg">
<path d="M8.69751 13.9465H21.2494V42.537C21.2494 44.0775 20.0006 45.3263 18.4601 45.3263H11.4868C9.94633 45.3263 8.69751 44.0775 8.69751 42.537V13.9465Z" fill="#CBCBCB"/>
<path d="M21.2494 9.7627L8.69751 13.9467H21.2494V9.7627Z" fill="#CBCBCB"/>
<path d="M22.6441 9.7627L35.196 13.9467H22.6441V9.7627Z" fill="#CBCBCB"/>
<path d="M22.644 13.9465H35.196V25.8011C35.196 27.7267 33.6349 29.2878 31.7093 29.2878H22.644V13.9465Z" fill="#CBCBCB"/>
<path d="M8.00002 13.5979V15.3412L1.02674 14.6439C0.445629 14.5277 -0.507386 14.1558 0.329408 13.5979C1.1662 13.04 15.0895 4.30019 21.9466 0C28.9199 4.41641 43.0059 13.319 43.5638 13.5979C44.1216 13.8768 43.7962 14.179 43.5638 14.2952L35.8932 15.3412V13.5979L21.9468 8.01928L8.00002 13.5979Z" fill="#CBCBCB"/>
<rect x="37.9856" y="13.2493" width="5.57863" height="7.67061" rx="1.39466" fill="#CBCBCB"/>
</svg>
