<svg width="20" height="20" viewBox="0 0 20 20" fill="none" xmlns="http://www.w3.org/2000/svg">
<path d="M16.8501 7.39995L12.6001 3.14995L14.0251 1.72495C14.4084 1.34162 14.8794 1.14995 15.4381 1.14995C15.9968 1.14995 16.4674 1.34162 16.8501 1.72495L18.2751 3.14995C18.6584 3.53328 18.8501 4.00428 18.8501 4.56295C18.8501 5.12162 18.6584 5.59228 18.2751 5.97495L16.8501 7.39995ZM1.0001 19V14.75L5.5001 10.25L0.225098 4.92495L4.9501 0.199951L10.2501 5.52495L12.6001 3.14995L16.8501 7.39995L14.5001 9.74995L19.7751 15.075L15.0751 19.775L9.7501 14.475L5.2501 19H1.0001ZM6.9251 8.82495L8.8251 6.92495L7.6251 5.72495L6.4251 6.89995L5.0251 5.49995L6.2001 4.29995L4.9251 3.04995L3.0501 4.94995L6.9251 8.82495ZM15.0501 16.95L16.9501 15.05L15.6751 13.8L14.5001 14.975L13.0751 13.575L14.2751 12.375L13.0501 11.175L11.1501 13.075L15.0501 16.95ZM3.0001 17H4.4001L14.0251 7.39995L12.6001 5.97495L3.0001 15.6V17Z" fill="white"/>
</svg>
