<svg width="24" height="23" viewBox="0 0 24 23" fill="none" xmlns="http://www.w3.org/2000/svg">
<path d="M1.47852 5.46667L9.00477 1.93754C9.78432 1.5674 10.6365 1.37537 11.4995 1.37537C12.3624 1.37537 13.2146 1.5674 13.9941 1.93754L21.5215 5.46667C23.1595 6.23392 23.1595 8.89117 21.5215 9.65842L13.9953 13.1875C13.2157 13.5577 12.3635 13.7497 11.5006 13.7497C10.6376 13.7497 9.78545 13.5577 9.00589 13.1875L3.62502 10.6653" stroke="white" stroke-width="1.5" stroke-linecap="round"/>
<path d="M0.8125 14.875V11.6552C0.8125 10.2152 0.8125 9.49525 1.18375 8.93275C1.555 8.36913 2.21762 8.08563 3.5395 7.51863L4.75 7" stroke="white" stroke-width="1.5" stroke-linecap="round" stroke-linejoin="round"/>
<path d="M11.5 21.625C9.4795 21.625 6.83575 20.3639 5.18313 19.4492C4.192 18.8991 3.625 17.8371 3.625 16.7042V10.9375M19.375 10.9375V16.7031C19.375 17.8371 18.8091 18.8991 17.8169 19.4481C17.1315 19.8297 16.4296 20.1807 15.7131 20.5" stroke="white" stroke-width="1.5" stroke-linecap="round"/>
</svg>
