<svg width="735" height="735" viewBox="0 0 735 735" fill="none" xmlns="http://www.w3.org/2000/svg">
<g opacity="0.1">
<path d="M731.006 193.15L738.448 163.236L760.633 184.639L731.006 193.15Z" fill="white"/>
<path d="M732.041 147.988L739.483 118.074L761.668 139.476L732.041 147.988Z" fill="white"/>
<path d="M708.975 171.897L716.418 141.983L738.603 163.385L708.975 171.897Z" fill="white"/>
<path d="M733.076 102.825L740.518 72.9115L762.703 94.3137L733.076 102.825Z" fill="white"/>
<path d="M710.01 126.735L717.453 96.8207L739.638 118.223L710.01 126.735Z" fill="white"/>
<path d="M686.945 150.644L694.387 120.73L716.572 142.132L686.945 150.644Z" fill="white"/>
<path d="M734.111 57.6629L741.553 27.7491L763.738 49.1512L734.111 57.6629Z" fill="white"/>
<path d="M711.045 81.5721L718.488 51.6582L740.673 73.0604L711.045 81.5721Z" fill="white"/>
<path d="M687.98 105.481L695.422 75.5675L717.607 96.9697L687.98 105.481Z" fill="white"/>
<path d="M664.914 129.391L672.357 99.4767L694.541 120.879L664.914 129.391Z" fill="white"/>
<path d="M735.146 12.5004L742.588 -17.4135L764.773 3.98871L735.146 12.5004Z" fill="white"/>
<path d="M712.08 36.4096L719.523 6.49576L741.708 27.898L712.08 36.4096Z" fill="white"/>
<path d="M689.015 60.3188L696.457 30.4049L718.642 51.8071L689.015 60.3188Z" fill="white"/>
<path d="M665.949 84.228L673.391 54.3142L695.576 75.7164L665.949 84.228Z" fill="white"/>
<path d="M642.884 108.137L650.326 78.2234L672.511 99.6256L642.884 108.137Z" fill="white"/>
<path d="M713.115 -8.75292L720.558 -38.6668L742.743 -17.2646L713.115 -8.75292Z" fill="white"/>
<path d="M690.05 15.1563L697.492 -14.7576L719.677 6.6446L690.05 15.1563Z" fill="white"/>
<path d="M666.984 39.0656L674.426 9.15171L696.611 30.5539L666.984 39.0656Z" fill="white"/>
<path d="M643.918 62.9747L651.361 33.0609L673.546 54.4631L643.918 62.9747Z" fill="white"/>
<path d="M620.853 86.884L628.295 56.9701L650.48 78.3723L620.853 86.884Z" fill="white"/>
<path d="M668.019 -6.09698L675.461 -36.0108L697.646 -14.6086L668.019 -6.09698Z" fill="white"/>
<path d="M644.953 17.8123L652.396 -12.1016L674.581 9.3006L644.953 17.8123Z" fill="white"/>
<path d="M621.888 41.7214L629.33 11.8076L651.515 33.2098L621.888 41.7214Z" fill="white"/>
<path d="M598.822 65.6307L606.265 35.7168L628.45 57.119L598.822 65.6307Z" fill="white"/>
<path d="M622.923 -3.44103L630.365 -33.3549L652.55 -11.9527L622.923 -3.44103Z" fill="white"/>
<path d="M599.857 20.4683L607.3 -9.44558L629.485 11.9566L599.857 20.4683Z" fill="white"/>
<path d="M576.792 44.3774L584.234 14.4636L606.419 35.8658L576.792 44.3774Z" fill="white"/>
<path d="M577.827 -0.785088L585.269 -30.6989L607.454 -9.29675L577.827 -0.785088Z" fill="white"/>
<path d="M554.761 23.1242L562.203 -6.7897L584.388 14.6125L554.761 23.1242Z" fill="white"/>
<path d="M532.73 1.87086L540.173 -28.043L562.358 -6.6408L532.73 1.87086Z" fill="white"/>
</g>
<g opacity="0.05">
<path d="M725.987 278.763L733.429 248.849L755.614 270.251L725.987 278.763Z" fill="white"/>
<path d="M702.921 302.672L710.363 272.758L732.548 294.16L702.921 302.672Z" fill="white"/>
<path d="M679.855 326.581L687.298 296.667L709.483 318.069L679.855 326.581Z" fill="white"/>
<path d="M656.79 350.49L664.232 320.576L686.417 341.979L656.79 350.49Z" fill="white"/>
<path d="M633.724 374.4L641.167 344.486L663.352 365.888L633.724 374.4Z" fill="white"/>
<path d="M610.659 398.309L618.101 368.395L640.286 389.797L610.659 398.309Z" fill="white"/>
<path d="M727.022 233.6L734.464 203.686L756.649 225.089L727.022 233.6Z" fill="white"/>
<path d="M703.956 257.509L711.398 227.595L733.583 248.998L703.956 257.509Z" fill="white"/>
<path d="M680.89 281.419L688.333 251.505L710.518 272.907L680.89 281.419Z" fill="white"/>
<path d="M657.825 305.328L665.267 275.414L687.452 296.816L657.825 305.328Z" fill="white"/>
<path d="M634.759 329.237L642.201 299.323L664.386 320.725L634.759 329.237Z" fill="white"/>
<path d="M611.694 353.146L619.136 323.232L641.321 344.635L611.694 353.146Z" fill="white"/>
<path d="M588.628 377.055L596.07 347.142L618.255 368.544L588.628 377.055Z" fill="white"/>
<path d="M704.991 212.347L712.433 182.433L734.618 203.835L704.991 212.347Z" fill="white"/>
<path d="M681.925 236.256L689.368 206.342L711.553 227.744L681.925 236.256Z" fill="white"/>
<path d="M658.86 260.165L666.302 230.251L688.487 251.654L658.86 260.165Z" fill="white"/>
<path d="M635.794 284.074L643.237 254.161L665.421 275.563L635.794 284.074Z" fill="white"/>
<path d="M612.729 307.984L620.171 278.07L642.356 299.472L612.729 307.984Z" fill="white"/>
<path d="M589.663 331.893L597.105 301.979L619.29 323.381L589.663 331.893Z" fill="white"/>
<path d="M566.597 355.802L574.04 325.888L596.225 347.29L566.597 355.802Z" fill="white"/>
<path d="M682.96 191.094L690.403 161.18L712.588 182.582L682.96 191.094Z" fill="white"/>
<path d="M659.895 215.003L667.337 185.089L689.522 206.491L659.895 215.003Z" fill="white"/>
<path d="M636.829 238.912L644.271 208.998L666.456 230.4L636.829 238.912Z" fill="white"/>
<path d="M613.764 262.821L621.206 232.907L643.391 254.31L613.764 262.821Z" fill="white"/>
<path d="M590.698 286.73L598.14 256.817L620.325 278.219L590.698 286.73Z" fill="white"/>
<path d="M567.632 310.64L575.075 280.726L597.26 302.128L567.632 310.64Z" fill="white"/>
<path d="M544.567 334.549L552.009 304.635L574.194 326.037L544.567 334.549Z" fill="white"/>
<path d="M660.93 169.84L668.372 139.926L690.557 161.329L660.93 169.84Z" fill="white"/>
<path d="M637.864 193.749L645.306 163.836L667.491 185.238L637.864 193.749Z" fill="white"/>
<path d="M614.798 217.659L622.241 187.745L644.426 209.147L614.798 217.659Z" fill="white"/>
<path d="M591.733 241.568L599.175 211.654L621.36 233.056L591.733 241.568Z" fill="white"/>
<path d="M568.667 265.477L576.11 235.563L598.295 256.965L568.667 265.477Z" fill="white"/>
<path d="M545.602 289.386L553.044 259.473L575.229 280.875L545.602 289.386Z" fill="white"/>
<path d="M522.536 313.296L529.978 283.382L552.163 304.784L522.536 313.296Z" fill="white"/>
<path d="M638.899 148.587L646.341 118.673L668.526 140.075L638.899 148.587Z" fill="white"/>
<path d="M615.833 172.496L623.276 142.582L645.461 163.985L615.833 172.496Z" fill="white"/>
<path d="M592.768 196.405L600.21 166.492L622.395 187.894L592.768 196.405Z" fill="white"/>
<path d="M569.702 220.315L577.145 190.401L599.33 211.803L569.702 220.315Z" fill="white"/>
<path d="M546.637 244.224L554.079 214.31L576.264 235.712L546.637 244.224Z" fill="white"/>
<path d="M523.571 268.133L531.013 238.219L553.198 259.621L523.571 268.133Z" fill="white"/>
<path d="M500.506 292.042L507.948 262.128L530.133 283.531L500.506 292.042Z" fill="white"/>
<path d="M616.868 127.334L624.311 97.4199L646.496 118.822L616.868 127.334Z" fill="white"/>
<path d="M593.803 151.243L601.245 121.329L623.43 142.731L593.803 151.243Z" fill="white"/>
<path d="M570.737 175.152L578.18 145.238L600.365 166.64L570.737 175.152Z" fill="white"/>
<path d="M547.672 199.061L555.114 169.147L577.299 190.55L547.672 199.061Z" fill="white"/>
<path d="M524.606 222.971L532.048 193.057L554.233 214.459L524.606 222.971Z" fill="white"/>
<path d="M501.54 246.88L508.983 216.966L531.168 238.368L501.54 246.88Z" fill="white"/>
<path d="M478.475 270.789L485.917 240.875L508.102 262.277L478.475 270.789Z" fill="white"/>
<path d="M594.838 106.08L602.28 76.1666L624.465 97.5688L594.838 106.08Z" fill="white"/>
<path d="M571.772 129.99L579.215 100.076L601.4 121.478L571.772 129.99Z" fill="white"/>
<path d="M548.707 153.899L556.149 123.985L578.334 145.387L548.707 153.899Z" fill="white"/>
<path d="M525.641 177.808L533.083 147.894L555.268 169.296L525.641 177.808Z" fill="white"/>
<path d="M502.575 201.717L510.018 171.803L532.203 193.206L502.575 201.717Z" fill="white"/>
<path d="M479.51 225.627L486.952 195.713L509.137 217.115L479.51 225.627Z" fill="white"/>
<path d="M456.444 249.536L463.887 219.622L486.072 241.024L456.444 249.536Z" fill="white"/>
<path d="M572.807 84.8272L580.249 54.9133L602.434 76.3155L572.807 84.8272Z" fill="white"/>
<path d="M549.742 108.736L557.184 78.8225L579.369 100.225L549.742 108.736Z" fill="white"/>
<path d="M526.676 132.646L534.118 102.732L556.303 124.134L526.676 132.646Z" fill="white"/>
<path d="M503.61 156.555L511.053 126.641L533.238 148.043L503.61 156.555Z" fill="white"/>
<path d="M480.545 180.464L487.987 150.55L510.172 171.952L480.545 180.464Z" fill="white"/>
<path d="M457.479 204.373L464.922 174.459L487.107 195.862L457.479 204.373Z" fill="white"/>
<path d="M434.414 228.282L441.856 198.369L464.041 219.771L434.414 228.282Z" fill="white"/>
<path d="M550.776 63.5739L558.219 33.6601L580.404 55.0623L550.776 63.5739Z" fill="white"/>
<path d="M527.711 87.483L535.153 57.5692L557.338 78.9714L527.711 87.483Z" fill="white"/>
<path d="M504.645 111.392L512.088 81.4785L534.273 102.881L504.645 111.392Z" fill="white"/>
<path d="M481.58 135.302L489.022 105.388L511.207 126.79L481.58 135.302Z" fill="white"/>
<path d="M458.514 159.211L465.956 129.297L488.141 150.699L458.514 159.211Z" fill="white"/>
<path d="M435.449 183.12L442.891 153.206L465.076 174.608L435.449 183.12Z" fill="white"/>
<path d="M412.383 207.029L419.825 177.115L442.01 198.518L412.383 207.029Z" fill="white"/>
<path d="M528.746 42.3206L536.188 12.4068L558.373 33.809L528.746 42.3206Z" fill="white"/>
<path d="M505.68 66.2298L513.123 36.316L535.308 57.7181L505.68 66.2298Z" fill="white"/>
<path d="M482.615 90.139L490.057 60.2252L512.242 81.6274L482.615 90.139Z" fill="white"/>
<path d="M459.549 114.048L466.992 84.1344L489.176 105.537L459.549 114.048Z" fill="white"/>
<path d="M436.483 137.957L443.926 108.044L466.111 129.446L436.483 137.957Z" fill="white"/>
<path d="M413.418 161.867L420.86 131.953L443.045 153.355L413.418 161.867Z" fill="white"/>
<path d="M390.352 185.776L397.795 155.862L419.98 177.264L390.352 185.776Z" fill="white"/>
<path d="M506.715 21.0673L514.158 -8.84652L536.343 12.5557L506.715 21.0673Z" fill="white"/>
<path d="M483.65 44.9765L491.092 15.0627L513.277 36.4648L483.65 44.9765Z" fill="white"/>
<path d="M460.584 68.8857L468.026 38.9719L490.211 60.3741L460.584 68.8857Z" fill="white"/>
<path d="M437.519 92.7949L444.961 62.8811L467.146 84.2833L437.519 92.7949Z" fill="white"/>
<path d="M414.453 116.704L421.895 86.7904L444.08 108.193L414.453 116.704Z" fill="white"/>
<path d="M391.387 140.613L398.83 110.7L421.015 132.102L391.387 140.613Z" fill="white"/>
<path d="M368.322 164.523L375.764 134.609L397.949 156.011L368.322 164.523Z" fill="white"/>
<path d="M484.685 -0.185967L492.127 -30.0998L514.312 -8.69763L484.685 -0.185967Z" fill="white"/>
<path d="M461.619 23.7232L469.061 -6.19064L491.246 15.2116L461.619 23.7232Z" fill="white"/>
<path d="M438.553 47.6325L445.996 17.7186L468.181 39.1208L438.553 47.6325Z" fill="white"/>
<path d="M415.488 71.5416L422.93 41.6278L445.115 63.03L415.488 71.5416Z" fill="white"/>
<path d="M392.422 95.4509L399.865 65.537L422.05 86.9392L392.422 95.4509Z" fill="white"/>
<path d="M369.357 119.36L376.799 89.4463L398.984 110.848L369.357 119.36Z" fill="white"/>
<path d="M346.291 143.269L353.733 113.355L375.918 134.758L346.291 143.269Z" fill="white"/>
<path d="M439.588 2.46992L447.031 -27.4439L469.216 -6.04174L439.588 2.46992Z" fill="white"/>
<path d="M416.523 26.3792L423.965 -3.53469L446.15 17.8675L416.523 26.3792Z" fill="white"/>
<path d="M393.457 50.2884L400.9 20.3745L423.085 41.7767L393.457 50.2884Z" fill="white"/>
<path d="M370.392 74.1976L377.834 44.2837L400.019 65.6859L370.392 74.1976Z" fill="white"/>
<path d="M347.326 98.1068L354.768 68.193L376.953 89.5952L347.326 98.1068Z" fill="white"/>
<path d="M324.26 122.016L331.703 92.1022L353.888 113.504L324.26 122.016Z" fill="white"/>
</g>
<g opacity="0.05">
<path d="M742.98 573.446L750.422 543.532L772.607 564.934L742.98 573.446Z" fill="white"/>
<path d="M744.015 528.283L751.457 498.369L773.642 519.772L744.015 528.283Z" fill="white"/>
<path d="M720.949 552.192L728.392 522.279L750.577 543.681L720.949 552.192Z" fill="white"/>
<path d="M745.05 483.121L752.492 453.207L774.677 474.609L745.05 483.121Z" fill="white"/>
<path d="M721.984 507.03L729.427 477.116L751.612 498.518L721.984 507.03Z" fill="white"/>
<path d="M698.919 530.939L706.361 501.025L728.546 522.427L698.919 530.939Z" fill="white"/>
<path d="M746.085 437.958L753.527 408.044L775.712 429.446L746.085 437.958Z" fill="white"/>
<path d="M723.019 461.867L730.462 431.954L752.647 453.356L723.019 461.867Z" fill="white"/>
<path d="M699.954 485.777L707.396 455.863L729.581 477.265L699.954 485.777Z" fill="white"/>
<path d="M676.888 509.686L684.331 479.772L706.515 501.174L676.888 509.686Z" fill="white"/>
<path d="M724.054 416.705L731.497 386.791L753.682 408.193L724.054 416.705Z" fill="white"/>
<path d="M700.989 440.614L708.431 410.7L730.616 432.102L700.989 440.614Z" fill="white"/>
<path d="M677.923 464.523L685.365 434.609L707.55 456.012L677.923 464.523Z" fill="white"/>
<path d="M654.858 488.433L662.3 458.519L684.485 479.921L654.858 488.433Z" fill="white"/>
<path d="M725.089 371.542L732.532 341.629L754.717 363.031L725.089 371.542Z" fill="white"/>
<path d="M702.024 395.452L709.466 365.538L731.651 386.94L702.024 395.452Z" fill="white"/>
<path d="M678.958 419.361L686.4 389.447L708.585 410.849L678.958 419.361Z" fill="white"/>
<path d="M655.892 443.27L663.335 413.356L685.52 434.758L655.892 443.27Z" fill="white"/>
<path d="M632.827 467.179L640.269 437.265L662.454 458.668L632.827 467.179Z" fill="white"/>
<path d="M726.124 326.38L733.567 296.466L755.752 317.868L726.124 326.38Z" fill="white"/>
<path d="M703.059 350.289L710.501 320.375L732.686 341.777L703.059 350.289Z" fill="white"/>
<path d="M679.993 374.198L687.435 344.285L709.62 365.687L679.993 374.198Z" fill="white"/>
<path d="M656.928 398.108L664.37 368.194L686.555 389.596L656.928 398.108Z" fill="white"/>
<path d="M633.862 422.017L641.304 392.103L663.489 413.505L633.862 422.017Z" fill="white"/>
<path d="M610.796 445.926L618.239 416.012L640.424 437.414L610.796 445.926Z" fill="white"/>
</g>
<g opacity="0.05">
<path d="M391.469 3.08466L398.911 -26.8292L421.096 -5.427L391.469 3.08466Z" fill="white"/>
<path d="M368.403 26.9938L375.846 -2.92001L398.031 18.4822L368.403 26.9938Z" fill="white"/>
<path d="M345.338 50.903L352.78 20.9892L374.965 42.3914L345.338 50.903Z" fill="white"/>
<path d="M322.272 74.8123L329.715 44.8985L351.9 66.3007L322.272 74.8123Z" fill="white"/>
<path d="M299.207 98.7215L306.649 68.8077L328.834 90.2098L299.207 98.7215Z" fill="white"/>
<path d="M346.373 5.74055L353.815 -24.1733L376 -2.77111L346.373 5.74055Z" fill="white"/>
<path d="M323.307 29.6498L330.749 -0.264062L352.934 21.1381L323.307 29.6498Z" fill="white"/>
<path d="M300.242 53.559L307.684 23.6452L329.869 45.0474L300.242 53.559Z" fill="white"/>
<path d="M277.176 77.4682L284.618 47.5544L306.803 68.9565L277.176 77.4682Z" fill="white"/>
<path d="M301.277 8.39649L308.719 -21.5174L330.904 -0.115169L301.277 8.39649Z" fill="white"/>
<path d="M278.211 32.3057L285.653 2.39188L307.838 23.7941L278.211 32.3057Z" fill="white"/>
<path d="M255.145 56.2149L262.588 26.3011L284.773 47.7033L255.145 56.2149Z" fill="white"/>
<path d="M256.18 11.0524L263.623 -18.8615L285.808 2.54071L256.18 11.0524Z" fill="white"/>
<path d="M233.115 34.9617L240.557 5.04783L262.742 26.45L233.115 34.9617Z" fill="white"/>
<path d="M234.15 -10.2008L241.592 -40.1146L263.777 -18.7125L234.15 -10.2008Z" fill="white"/>
<path d="M211.084 13.7084L218.527 -16.2055L240.712 5.19672L211.084 13.7084Z" fill="white"/>
<path d="M189.053 -7.54491L196.496 -37.4588L218.681 -16.0566L189.053 -7.54491Z" fill="white"/>
</g>
</svg>
