<svg width="728" height="824" viewBox="0 0 728 824" fill="none" xmlns="http://www.w3.org/2000/svg">
<g opacity="0.1">
<path d="M-3.89657 541.425L-11.3389 571.339L-33.5239 549.937L-3.89657 541.425Z" fill="white"/>
<path d="M-4.93149 586.587L-12.3738 616.501L-34.5588 595.099L-4.93149 586.587Z" fill="white"/>
<path d="M18.1339 562.678L10.6916 592.592L-11.4934 571.19L18.1339 562.678Z" fill="white"/>
<path d="M-5.96664 631.75L-13.409 661.664L-35.594 640.262L-5.96664 631.75Z" fill="white"/>
<path d="M17.099 607.841L9.65668 637.755L-12.5283 616.352L17.099 607.841Z" fill="white"/>
<path d="M40.1645 583.931L32.7221 613.845L10.5371 592.443L40.1645 583.931Z" fill="white"/>
<path d="M-7.00155 676.912L-14.4439 706.826L-36.6289 685.424L-7.00155 676.912Z" fill="white"/>
<path d="M16.0641 653.003L8.62177 682.917L-13.5632 661.515L16.0641 653.003Z" fill="white"/>
<path d="M39.1295 629.094L31.6872 659.008L9.50222 637.606L39.1295 629.094Z" fill="white"/>
<path d="M62.1952 605.185L54.7529 635.099L32.5679 613.696L62.1952 605.185Z" fill="white"/>
<path d="M-8.03647 722.075L-15.4788 751.989L-37.6638 730.586L-8.03647 722.075Z" fill="white"/>
<path d="M15.029 698.166L7.58661 728.079L-14.5984 706.677L15.029 698.166Z" fill="white"/>
<path d="M38.0946 674.256L30.6523 704.17L8.46731 682.768L38.0946 674.256Z" fill="white"/>
<path d="M61.1603 650.347L53.718 680.261L31.533 658.859L61.1603 650.347Z" fill="white"/>
<path d="M84.2257 626.438L76.7834 656.352L54.5984 634.95L84.2257 626.438Z" fill="white"/>
<path d="M-9.07138 767.237L-16.5137 797.151L-38.6987 775.749L-9.07138 767.237Z" fill="white"/>
<path d="M13.9941 743.328L6.5517 773.242L-15.6333 751.84L13.9941 743.328Z" fill="white"/>
<path d="M37.0597 719.419L29.6174 749.333L7.4324 727.931L37.0597 719.419Z" fill="white"/>
<path d="M60.1254 695.51L52.683 725.423L30.4981 704.021L60.1254 695.51Z" fill="white"/>
<path d="M83.1908 671.6L75.7485 701.514L53.5635 680.112L83.1908 671.6Z" fill="white"/>
<path d="M106.257 647.691L98.8142 677.605L76.6292 656.203L106.257 647.691Z" fill="white"/>
<path d="M-10.1063 812.4L-17.5486 842.314L-39.7336 820.912L-10.1063 812.4Z" fill="white"/>
<path d="M12.9591 788.491L5.51679 818.405L-16.6682 797.002L12.9591 788.491Z" fill="white"/>
<path d="M36.0248 764.581L28.5825 794.495L6.39748 773.093L36.0248 764.581Z" fill="white"/>
<path d="M59.0902 740.672L51.6479 770.586L29.4629 749.184L59.0902 740.672Z" fill="white"/>
<path d="M82.1559 716.763L74.7136 746.677L52.5286 725.275L82.1559 716.763Z" fill="white"/>
<path d="M105.222 692.854L97.7792 722.768L75.5943 701.365L105.222 692.854Z" fill="white"/>
<path d="M128.287 668.945L120.845 698.858L98.6597 677.456L128.287 668.945Z" fill="white"/>
<path d="M11.9242 833.653L4.48188 863.567L-17.7031 842.165L11.9242 833.653Z" fill="white"/>
<path d="M34.9899 809.744L27.5476 839.658L5.36257 818.256L34.9899 809.744Z" fill="white"/>
<path d="M58.0553 785.835L50.613 815.749L28.428 794.346L58.0553 785.835Z" fill="white"/>
<path d="M81.121 761.926L73.6787 791.839L51.4937 770.437L81.121 761.926Z" fill="white"/>
<path d="M104.186 738.016L96.7441 767.93L74.5591 746.528L104.186 738.016Z" fill="white"/>
<path d="M127.252 714.107L119.81 744.021L97.6248 722.619L127.252 714.107Z" fill="white"/>
<path d="M150.318 690.198L142.875 720.112L120.69 698.71L150.318 690.198Z" fill="white"/>
<path d="M57.0204 830.997L49.5781 860.911L27.3931 839.509L57.0204 830.997Z" fill="white"/>
<path d="M80.0861 807.088L72.6437 837.002L50.4588 815.6L80.0861 807.088Z" fill="white"/>
<path d="M103.152 783.179L95.7092 813.093L73.5242 791.69L103.152 783.179Z" fill="white"/>
<path d="M126.217 759.27L118.775 789.183L96.5899 767.781L126.217 759.27Z" fill="white"/>
<path d="M149.283 735.36L141.841 765.274L119.656 743.872L149.283 735.36Z" fill="white"/>
<path d="M172.348 711.451L164.906 741.365L142.721 719.963L172.348 711.451Z" fill="white"/>
<path d="M102.117 828.341L94.6743 858.255L72.4893 836.853L102.117 828.341Z" fill="white"/>
<path d="M125.182 804.432L117.74 834.346L95.555 812.944L125.182 804.432Z" fill="white"/>
<path d="M148.248 780.523L140.805 810.437L118.62 789.034L148.248 780.523Z" fill="white"/>
<path d="M171.313 756.614L163.871 786.527L141.686 765.125L171.313 756.614Z" fill="white"/>
<path d="M194.379 732.704L186.937 762.618L164.752 741.216L194.379 732.704Z" fill="white"/>
<path d="M147.213 825.685L139.77 855.599L117.585 834.197L147.213 825.685Z" fill="white"/>
<path d="M170.278 801.776L162.836 831.69L140.651 810.288L170.278 801.776Z" fill="white"/>
<path d="M193.344 777.867L185.902 807.781L163.717 786.379L193.344 777.867Z" fill="white"/>
<path d="M216.41 753.958L208.967 783.872L186.782 762.469L216.41 753.958Z" fill="white"/>
<path d="M192.309 823.029L184.867 852.943L162.682 831.541L192.309 823.029Z" fill="white"/>
<path d="M215.375 799.12L207.932 829.034L185.747 807.632L215.375 799.12Z" fill="white"/>
<path d="M238.44 775.211L230.998 805.125L208.813 783.723L238.44 775.211Z" fill="white"/>
<path d="M237.405 820.374L229.963 850.287L207.778 828.885L237.405 820.374Z" fill="white"/>
<path d="M260.471 796.464L253.029 826.378L230.844 804.976L260.471 796.464Z" fill="white"/>
</g>
<g opacity="0.05">
<path d="M1.12296 455.813L-6.31939 485.727L-28.5044 464.324L1.12296 455.813Z" fill="white"/>
<path d="M24.1886 431.903L16.7463 461.817L-5.4387 440.415L24.1886 431.903Z" fill="white"/>
<path d="M47.2541 407.994L39.8117 437.908L17.6267 416.506L47.2541 407.994Z" fill="white"/>
<path d="M70.3197 384.085L62.8774 413.999L40.6924 392.597L70.3197 384.085Z" fill="white"/>
<path d="M93.3852 360.176L85.9428 390.09L63.7578 368.687L93.3852 360.176Z" fill="white"/>
<path d="M116.451 336.267L109.008 366.18L86.8235 344.778L116.451 336.267Z" fill="white"/>
<path d="M0.0880447 500.975L-7.35431 530.889L-29.5393 509.487L0.0880447 500.975Z" fill="white"/>
<path d="M23.1535 477.066L15.7111 506.98L-6.47385 485.578L23.1535 477.066Z" fill="white"/>
<path d="M46.2191 453.157L38.7768 483.071L16.5918 461.668L46.2191 453.157Z" fill="white"/>
<path d="M69.2848 429.248L61.8425 459.161L39.6575 437.759L69.2848 429.248Z" fill="white"/>
<path d="M92.3503 405.338L84.9079 435.252L62.7229 413.85L92.3503 405.338Z" fill="white"/>
<path d="M115.416 381.429L107.974 411.343L85.7886 389.941L115.416 381.429Z" fill="white"/>
<path d="M138.482 357.52L131.039 387.434L108.854 366.032L138.482 357.52Z" fill="white"/>
<path d="M22.1186 522.229L14.6762 552.142L-7.50877 530.74L22.1186 522.229Z" fill="white"/>
<path d="M45.1842 498.319L37.7419 528.233L15.5569 506.831L45.1842 498.319Z" fill="white"/>
<path d="M68.2497 474.41L60.8073 504.324L38.6223 482.922L68.2497 474.41Z" fill="white"/>
<path d="M91.3153 450.501L83.873 480.415L61.688 459.013L91.3153 450.501Z" fill="white"/>
<path d="M114.381 426.592L106.939 456.505L84.7537 435.103L114.381 426.592Z" fill="white"/>
<path d="M137.447 402.682L130.004 432.596L107.819 411.194L137.447 402.682Z" fill="white"/>
<path d="M160.512 378.773L153.07 408.687L130.885 387.285L160.512 378.773Z" fill="white"/>
<path d="M44.1493 543.482L36.707 573.396L14.522 551.993L44.1493 543.482Z" fill="white"/>
<path d="M67.2148 519.573L59.7724 549.486L37.5874 528.084L67.2148 519.573Z" fill="white"/>
<path d="M90.2804 495.663L82.8381 525.577L60.6531 504.175L90.2804 495.663Z" fill="white"/>
<path d="M113.346 471.754L105.904 501.668L83.7188 480.266L113.346 471.754Z" fill="white"/>
<path d="M136.412 447.845L128.969 477.759L106.784 456.357L136.412 447.845Z" fill="white"/>
<path d="M159.477 423.936L152.035 453.85L129.85 432.447L159.477 423.936Z" fill="white"/>
<path d="M182.543 400.026L175.1 429.94L152.915 408.538L182.543 400.026Z" fill="white"/>
<path d="M66.1798 564.735L58.7375 594.649L36.5525 573.247L66.1798 564.735Z" fill="white"/>
<path d="M89.2455 540.826L81.8032 570.74L59.6182 549.338L89.2455 540.826Z" fill="white"/>
<path d="M112.311 516.917L104.869 546.83L82.6836 525.428L112.311 516.917Z" fill="white"/>
<path d="M135.377 493.007L127.934 522.921L105.749 501.519L135.377 493.007Z" fill="white"/>
<path d="M158.442 469.098L151 499.012L128.815 477.61L158.442 469.098Z" fill="white"/>
<path d="M181.508 445.189L174.065 475.103L151.88 453.701L181.508 445.189Z" fill="white"/>
<path d="M204.573 421.28L197.131 451.194L174.946 429.791L204.573 421.28Z" fill="white"/>
<path d="M88.2106 585.988L80.7683 615.902L58.5833 594.5L88.2106 585.988Z" fill="white"/>
<path d="M111.276 562.079L103.834 591.993L81.6487 570.591L111.276 562.079Z" fill="white"/>
<path d="M134.342 538.17L126.899 568.084L104.714 546.682L134.342 538.17Z" fill="white"/>
<path d="M157.407 514.261L149.965 544.175L127.78 522.772L157.407 514.261Z" fill="white"/>
<path d="M180.473 490.351L173.03 520.265L150.845 498.863L180.473 490.351Z" fill="white"/>
<path d="M203.538 466.442L196.096 496.356L173.911 474.954L203.538 466.442Z" fill="white"/>
<path d="M226.604 442.533L219.162 472.447L196.977 451.045L226.604 442.533Z" fill="white"/>
<path d="M110.241 607.242L102.799 637.155L80.6138 615.753L110.241 607.242Z" fill="white"/>
<path d="M133.307 583.332L125.864 613.246L103.679 591.844L133.307 583.332Z" fill="white"/>
<path d="M156.372 559.423L148.93 589.337L126.745 567.935L156.372 559.423Z" fill="white"/>
<path d="M179.438 535.514L171.996 565.428L149.811 544.026L179.438 535.514Z" fill="white"/>
<path d="M202.503 511.605L195.061 541.519L172.876 520.116L202.503 511.605Z" fill="white"/>
<path d="M225.569 487.696L218.127 517.609L195.942 496.207L225.569 487.696Z" fill="white"/>
<path d="M248.635 463.786L241.192 493.7L219.007 472.298L248.635 463.786Z" fill="white"/>
<path d="M132.272 628.495L124.83 658.409L102.645 637.007L132.272 628.495Z" fill="white"/>
<path d="M155.337 604.586L147.895 634.5L125.71 613.097L155.337 604.586Z" fill="white"/>
<path d="M178.403 580.677L170.961 610.59L148.776 589.188L178.403 580.677Z" fill="white"/>
<path d="M201.469 556.767L194.026 586.681L171.841 565.279L201.469 556.767Z" fill="white"/>
<path d="M224.534 532.858L217.092 562.772L194.907 541.37L224.534 532.858Z" fill="white"/>
<path d="M247.6 508.949L240.157 538.863L217.972 517.461L247.6 508.949Z" fill="white"/>
<path d="M270.665 485.04L263.223 514.954L241.038 493.551L270.665 485.04Z" fill="white"/>
<path d="M154.302 649.748L146.86 679.662L124.675 658.26L154.302 649.748Z" fill="white"/>
<path d="M177.368 625.839L169.926 655.753L147.741 634.351L177.368 625.839Z" fill="white"/>
<path d="M200.434 601.93L192.991 631.844L170.806 610.441L200.434 601.93Z" fill="white"/>
<path d="M223.499 578.021L216.057 607.934L193.872 586.532L223.499 578.021Z" fill="white"/>
<path d="M246.565 554.111L239.122 584.025L216.937 562.623L246.565 554.111Z" fill="white"/>
<path d="M269.63 530.202L262.188 560.116L240.003 538.714L269.63 530.202Z" fill="white"/>
<path d="M292.696 506.293L285.253 536.207L263.069 514.805L292.696 506.293Z" fill="white"/>
<path d="M176.333 671.001L168.891 700.915L146.706 679.513L176.333 671.001Z" fill="white"/>
<path d="M199.399 647.092L191.956 677.006L169.771 655.604L199.399 647.092Z" fill="white"/>
<path d="M222.464 623.183L215.022 653.097L192.837 631.695L222.464 623.183Z" fill="white"/>
<path d="M245.53 599.274L238.087 629.188L215.902 607.785L245.53 599.274Z" fill="white"/>
<path d="M268.595 575.365L261.153 605.278L238.968 583.876L268.595 575.365Z" fill="white"/>
<path d="M291.661 551.455L284.219 581.369L262.034 559.967L291.661 551.455Z" fill="white"/>
<path d="M314.727 527.546L307.284 557.46L285.099 536.058L314.727 527.546Z" fill="white"/>
<path d="M198.364 692.255L190.921 722.168L168.736 700.766L198.364 692.255Z" fill="white"/>
<path d="M221.429 668.345L213.987 698.259L191.802 676.857L221.429 668.345Z" fill="white"/>
<path d="M244.495 644.436L237.052 674.35L214.867 652.948L244.495 644.436Z" fill="white"/>
<path d="M267.56 620.527L260.118 650.441L237.933 629.039L267.56 620.527Z" fill="white"/>
<path d="M290.626 596.618L283.184 626.532L260.999 605.13L290.626 596.618Z" fill="white"/>
<path d="M313.692 572.709L306.249 602.622L284.064 581.22L313.692 572.709Z" fill="white"/>
<path d="M336.757 548.799L329.315 578.713L307.13 557.311L336.757 548.799Z" fill="white"/>
<path d="M220.394 713.508L212.952 743.422L190.767 722.02L220.394 713.508Z" fill="white"/>
<path d="M243.46 689.599L236.018 719.513L213.833 698.11L243.46 689.599Z" fill="white"/>
<path d="M266.525 665.69L259.083 695.603L236.898 674.201L266.525 665.69Z" fill="white"/>
<path d="M289.591 641.78L282.149 671.694L259.964 650.292L289.591 641.78Z" fill="white"/>
<path d="M312.657 617.871L305.214 647.785L283.029 626.383L312.657 617.871Z" fill="white"/>
<path d="M335.722 593.962L328.28 623.876L306.095 602.474L335.722 593.962Z" fill="white"/>
<path d="M358.788 570.053L351.345 599.967L329.16 578.564L358.788 570.053Z" fill="white"/>
<path d="M242.425 734.761L234.983 764.675L212.798 743.273L242.425 734.761Z" fill="white"/>
<path d="M265.49 710.852L258.048 740.766L235.863 719.364L265.49 710.852Z" fill="white"/>
<path d="M288.556 686.943L281.114 716.857L258.929 695.455L288.556 686.943Z" fill="white"/>
<path d="M311.622 663.034L304.179 692.948L281.994 671.545L311.622 663.034Z" fill="white"/>
<path d="M334.687 639.124L327.245 669.038L305.06 647.636L334.687 639.124Z" fill="white"/>
<path d="M357.753 615.215L350.31 645.129L328.126 623.727L357.753 615.215Z" fill="white"/>
<path d="M380.818 591.306L373.376 621.22L351.191 599.818L380.818 591.306Z" fill="white"/>
<path d="M264.455 756.015L257.013 785.928L234.828 764.526L264.455 756.015Z" fill="white"/>
<path d="M287.521 732.105L280.079 762.019L257.894 740.617L287.521 732.105Z" fill="white"/>
<path d="M310.587 708.196L303.144 738.11L280.959 716.708L310.587 708.196Z" fill="white"/>
<path d="M333.652 684.287L326.21 714.201L304.025 692.799L333.652 684.287Z" fill="white"/>
<path d="M356.718 660.378L349.275 690.292L327.09 668.889L356.718 660.378Z" fill="white"/>
<path d="M379.783 636.468L372.341 666.382L350.156 644.98L379.783 636.468Z" fill="white"/>
<path d="M402.849 612.559L395.407 642.473L373.222 621.071L402.849 612.559Z" fill="white"/>
</g>
<g opacity="0.05">
<path d="M6.15982 182.383L-1.28253 212.297L-23.4675 190.894L6.15982 182.383Z" fill="white"/>
<path d="M5.12491 227.545L-2.31744 257.459L-24.5024 236.057L5.12491 227.545Z" fill="white"/>
<path d="M28.1906 203.636L20.7482 233.55L-1.43675 212.148L28.1906 203.636Z" fill="white"/>
<path d="M4.09 272.708L-3.35235 302.622L-25.5373 281.219L4.09 272.708Z" fill="white"/>
<path d="M27.1557 248.799L19.7133 278.712L-2.47166 257.31L27.1557 248.799Z" fill="white"/>
<path d="M50.2211 224.889L42.7788 254.803L20.5938 233.401L50.2211 224.889Z" fill="white"/>
<path d="M3.05509 317.87L-4.38726 347.784L-26.5722 326.382L3.05509 317.87Z" fill="white"/>
<path d="M26.1205 293.961L18.6782 323.875L-3.50681 302.473L26.1205 293.961Z" fill="white"/>
<path d="M49.1862 270.052L41.7438 299.966L19.5589 278.564L49.1862 270.052Z" fill="white"/>
<path d="M72.2519 246.143L64.8095 276.056L42.6245 254.654L72.2519 246.143Z" fill="white"/>
<path d="M2.02017 363.033L-5.42218 392.947L-27.6072 371.544L2.02017 363.033Z" fill="white"/>
<path d="M25.0856 339.124L17.6433 369.037L-4.54173 347.635L25.0856 339.124Z" fill="white"/>
<path d="M48.1513 315.214L40.7089 345.128L18.5239 323.726L48.1513 315.214Z" fill="white"/>
<path d="M71.217 291.305L63.7746 321.219L41.5896 299.817L71.217 291.305Z" fill="white"/>
<path d="M94.2824 267.396L86.84 297.31L64.6551 275.908L94.2824 267.396Z" fill="white"/>
<path d="M0.985017 408.195L-6.45733 438.109L-28.6423 416.707L0.985017 408.195Z" fill="white"/>
<path d="M24.0507 384.286L16.6083 414.2L-5.57664 392.798L24.0507 384.286Z" fill="white"/>
<path d="M47.1164 360.377L39.674 390.291L17.489 368.888L47.1164 360.377Z" fill="white"/>
<path d="M70.1818 336.468L62.7394 366.381L40.5545 344.979L70.1818 336.468Z" fill="white"/>
<path d="M93.2475 312.558L85.8051 342.472L63.6201 321.07L93.2475 312.558Z" fill="white"/>
<path d="M116.313 288.649L108.871 318.563L86.6858 297.161L116.313 288.649Z" fill="white"/>
</g>
<g opacity="0.05">
<path d="M289.509 779.309L282.067 809.223L259.882 787.821L289.509 779.309Z" fill="white"/>
<path d="M312.575 755.4L305.133 785.314L282.948 763.911L312.575 755.4Z" fill="white"/>
<path d="M335.64 731.491L328.198 761.404L306.013 740.002L335.64 731.491Z" fill="white"/>
<path d="M358.706 707.581L351.264 737.495L329.079 716.093L358.706 707.581Z" fill="white"/>
<path d="M381.772 683.672L374.329 713.586L352.144 692.184L381.772 683.672Z" fill="white"/>
<path d="M404.837 659.763L397.395 689.677L375.21 668.275L404.837 659.763Z" fill="white"/>
<path d="M427.903 635.854L420.46 665.768L398.275 644.365L427.903 635.854Z" fill="white"/>
<path d="M311.54 800.562L304.097 830.476L281.912 809.074L311.54 800.562Z" fill="white"/>
<path d="M334.606 776.653L327.163 806.567L304.978 785.165L334.606 776.653Z" fill="white"/>
<path d="M357.671 752.744L350.229 782.658L328.044 761.256L357.671 752.744Z" fill="white"/>
<path d="M380.737 728.835L373.294 758.749L351.109 737.346L380.737 728.835Z" fill="white"/>
<path d="M403.802 704.925L396.36 734.839L374.175 713.437L403.802 704.925Z" fill="white"/>
<path d="M426.868 681.016L419.425 710.93L397.241 689.528L426.868 681.016Z" fill="white"/>
<path d="M449.933 657.107L442.491 687.021L420.306 665.619L449.933 657.107Z" fill="white"/>
<path d="M333.57 821.816L326.128 851.73L303.943 830.327L333.57 821.816Z" fill="white"/>
<path d="M356.636 797.906L349.194 827.82L327.009 806.418L356.636 797.906Z" fill="white"/>
<path d="M379.702 773.997L372.259 803.911L350.074 782.509L379.702 773.997Z" fill="white"/>
<path d="M402.767 750.088L395.325 780.002L373.14 758.6L402.767 750.088Z" fill="white"/>
<path d="M425.833 726.179L418.39 756.093L396.205 734.69L425.833 726.179Z" fill="white"/>
<path d="M448.898 702.27L441.456 732.183L419.271 710.781L448.898 702.27Z" fill="white"/>
<path d="M471.964 678.36L464.522 708.274L442.337 686.872L471.964 678.36Z" fill="white"/>
<path d="M378.667 819.16L371.224 849.074L349.039 827.671L378.667 819.16Z" fill="white"/>
<path d="M401.732 795.25L394.29 825.164L372.105 803.762L401.732 795.25Z" fill="white"/>
<path d="M424.798 771.341L417.356 801.255L395.171 779.853L424.798 771.341Z" fill="white"/>
<path d="M447.863 747.432L440.421 777.346L418.236 755.944L447.863 747.432Z" fill="white"/>
<path d="M470.929 723.523L463.487 753.437L441.302 732.034L470.929 723.523Z" fill="white"/>
<path d="M493.995 699.614L486.552 729.527L464.367 708.125L493.995 699.614Z" fill="white"/>
<path d="M423.763 816.504L416.32 846.418L394.136 825.015L423.763 816.504Z" fill="white"/>
<path d="M446.829 792.595L439.386 822.508L417.201 801.106L446.829 792.595Z" fill="white"/>
<path d="M469.894 768.685L462.452 798.599L440.267 777.197L469.894 768.685Z" fill="white"/>
<path d="M492.96 744.776L485.517 774.69L463.332 753.288L492.96 744.776Z" fill="white"/>
<path d="M516.025 720.867L508.583 750.781L486.398 729.379L516.025 720.867Z" fill="white"/>
<path d="M468.859 813.848L461.417 843.762L439.232 822.36L468.859 813.848Z" fill="white"/>
<path d="M491.925 789.939L484.482 819.852L462.297 798.45L491.925 789.939Z" fill="white"/>
<path d="M514.99 766.029L507.548 795.943L485.363 774.541L514.99 766.029Z" fill="white"/>
<path d="M538.056 742.12L530.614 772.034L508.429 750.632L538.056 742.12Z" fill="white"/>
<path d="M513.955 811.192L506.513 841.106L484.328 819.704L513.955 811.192Z" fill="white"/>
<path d="M537.021 787.283L529.579 817.197L507.394 795.794L537.021 787.283Z" fill="white"/>
<path d="M560.086 763.374L552.644 793.287L530.459 771.885L560.086 763.374Z" fill="white"/>
<path d="M535.986 832.445L528.544 862.359L506.359 840.957L535.986 832.445Z" fill="white"/>
<path d="M559.052 808.536L551.609 838.45L529.424 817.048L559.052 808.536Z" fill="white"/>
<path d="M582.117 784.627L574.675 814.541L552.49 793.138L582.117 784.627Z" fill="white"/>
<path d="M581.082 829.789L573.64 859.703L551.455 838.301L581.082 829.789Z" fill="white"/>
<path d="M604.148 805.88L596.705 835.794L574.52 814.392L604.148 805.88Z" fill="white"/>
<path d="M626.178 827.133L618.736 857.047L596.551 835.645L626.178 827.133Z" fill="white"/>
</g>
</svg>
