<svg width="153" height="152" viewBox="0 0 153 152" fill="none" xmlns="http://www.w3.org/2000/svg">
<g opacity="0.1">
<path d="M134.94 0.397713L118.989 -3.02821L129.932 -15.1295L134.94 0.397713Z" fill="white"/>
<path d="M111.032 0.621773L95.0805 -2.80415L106.023 -14.9055L111.032 0.621773Z" fill="white"/>
<path d="M124.074 12.4149L108.122 8.98894L119.065 -3.11238L124.074 12.4149Z" fill="white"/>
<path d="M87.1234 0.845833L71.1721 -2.58009L82.1147 -14.6814L87.1234 0.845833Z" fill="white"/>
<path d="M100.165 12.6389L84.2138 9.213L95.1564 -2.88832L100.165 12.6389Z" fill="white"/>
<path d="M113.207 24.432L97.2558 21.006L108.198 8.90471L113.207 24.432Z" fill="white"/>
<path d="M63.2152 1.06983L47.2639 -2.35609L58.2065 -14.4574L63.2152 1.06983Z" fill="white"/>
<path d="M76.2572 12.8629L60.3059 9.437L71.2485 -2.66432L76.2572 12.8629Z" fill="white"/>
<path d="M89.299 24.656L73.3476 21.2301L84.2902 9.12877L89.299 24.656Z" fill="white"/>
<path d="M102.341 36.4492L86.3894 33.0232L97.332 20.9219L102.341 36.4492Z" fill="white"/>
<path d="M39.3068 1.29389L23.3554 -2.13203L34.298 -14.2334L39.3068 1.29389Z" fill="white"/>
<path d="M52.3488 13.087L36.3974 9.66106L47.34 -2.44026L52.3488 13.087Z" fill="white"/>
<path d="M65.3905 24.8801L49.4392 21.4542L60.3818 9.35283L65.3905 24.8801Z" fill="white"/>
<path d="M78.4325 36.6732L62.4812 33.2472L73.4238 21.1459L78.4325 36.6732Z" fill="white"/>
<path d="M91.4743 48.4663L75.5229 45.0403L86.4655 32.939L91.4743 48.4663Z" fill="white"/>
<path d="M15.3983 1.51795L-0.553019 -1.90797L10.3896 -14.0093L15.3983 1.51795Z" fill="white"/>
<path d="M28.4403 13.311L12.489 9.88512L23.4316 -2.2162L28.4403 13.311Z" fill="white"/>
<path d="M41.4821 25.1041L25.5307 21.6782L36.4733 9.57689L41.4821 25.1041Z" fill="white"/>
<path d="M54.5241 36.8972L38.5727 33.4713L49.5153 21.37L54.5241 36.8972Z" fill="white"/>
<path d="M67.5658 48.6903L51.6145 45.2644L62.5571 33.1631L67.5658 48.6903Z" fill="white"/>
<path d="M80.6078 60.4833L64.6565 57.0574L75.5991 44.956L80.6078 60.4833Z" fill="white"/>
<path d="M4.53213 13.535L-11.4192 10.1091L-0.476614 -1.9922L4.53213 13.535Z" fill="white"/>
<path d="M17.5739 25.3282L1.62252 21.9023L12.5651 9.80095L17.5739 25.3282Z" fill="white"/>
<path d="M30.6159 37.1212L14.6645 33.6953L25.6071 21.594L30.6159 37.1212Z" fill="white"/>
<path d="M43.6576 48.9144L27.7063 45.4885L38.6489 33.3871L43.6576 48.9144Z" fill="white"/>
<path d="M56.6996 60.7074L40.7483 57.2815L51.6909 45.1802L56.6996 60.7074Z" fill="white"/>
<path d="M69.7414 72.5006L53.79 69.0746L64.7326 56.9733L69.7414 72.5006Z" fill="white"/>
<path d="M6.70742 37.3452L-9.24394 33.9193L1.69868 21.818L6.70742 37.3452Z" fill="white"/>
<path d="M19.7494 49.1383L3.79806 45.7124L14.7407 33.6111L19.7494 49.1383Z" fill="white"/>
<path d="M32.7912 60.9315L16.8398 57.5055L27.7824 45.4042L32.7912 60.9315Z" fill="white"/>
<path d="M45.8329 72.7246L29.8816 69.2986L40.8242 57.1973L45.8329 72.7246Z" fill="white"/>
<path d="M58.8749 84.5176L42.9235 81.0917L53.8662 68.9903L58.8749 84.5176Z" fill="white"/>
<path d="M-4.15903 49.3624L-20.1104 45.9365L-9.16778 33.8352L-4.15903 49.3624Z" fill="white"/>
<path d="M8.88272 61.1555L-7.06864 57.7295L3.87397 45.6282L8.88272 61.1555Z" fill="white"/>
<path d="M21.9245 72.9486L5.9731 69.5227L16.9157 57.4214L21.9245 72.9486Z" fill="white"/>
<path d="M34.9665 84.7416L19.0151 81.3157L29.9577 69.2144L34.9665 84.7416Z" fill="white"/>
<path d="M48.0082 96.5348L32.0568 93.1089L42.9995 81.0076L48.0082 96.5348Z" fill="white"/>
<path d="M-1.98374 73.1726L-17.9351 69.7467L-6.99248 57.6454L-1.98374 73.1726Z" fill="white"/>
<path d="M11.058 84.9657L-4.89335 81.5398L6.04926 69.4385L11.058 84.9657Z" fill="white"/>
<path d="M24.1 96.7588L8.14864 93.3329L19.0913 81.2316L24.1 96.7588Z" fill="white"/>
<path d="M37.1418 108.552L21.1904 105.126L32.133 93.0246L37.1418 108.552Z" fill="white"/>
<path d="M0.1918 96.9828L-15.7596 93.5569L-4.81695 81.4556L0.1918 96.9828Z" fill="white"/>
<path d="M13.2335 108.776L-2.71781 105.35L8.2248 93.2487L13.2335 108.776Z" fill="white"/>
<path d="M26.2755 120.569L10.3242 117.143L21.2668 105.042L26.2755 120.569Z" fill="white"/>
<path d="M2.36709 120.793L-13.5843 117.367L-2.64165 105.266L2.36709 120.793Z" fill="white"/>
<path d="M15.4088 132.586L-0.542521 129.16L10.4001 117.059L15.4088 132.586Z" fill="white"/>
<path d="M4.54239 144.603L-11.409 141.177L-0.46636 129.076L4.54239 144.603Z" fill="white"/>
</g>
</svg>
